<svg width="140" height="38" viewBox="0 0 140 38" fill="none" xmlns="http://www.w3.org/2000/svg">
<path d="M10.9336 9.8188V11.0918H12.216H13.4985V9.8188V8.5458H12.216H10.9336V9.8188Z" fill="#98001C"/>
<path d="M35.3848 16.6819C35.3848 22.0596 35.3905 24.8984 35.399 25.0526C35.4745 26.2619 35.798 27.1417 36.3822 27.7273C36.9194 28.2662 37.7502 28.6283 38.7262 28.7513C39.1466 28.8037 39.1979 28.8051 40.6471 28.8107L42.0962 28.8164V27.7202V26.624L40.8822 26.6184C39.5798 26.6141 39.5769 26.6127 39.2492 26.5363C38.4954 26.3623 38.1662 25.9663 38.018 25.0596C38.0066 24.9875 38.0009 23.6565 37.9967 20.1614L37.9924 15.3622L40.0443 15.3721L42.0962 15.382V14.3127V13.242H40.0443H37.9924V10.894V8.54601H36.6886H35.3848V16.6819Z" fill="#98001C"/>
<path d="M73.2754 16.5131C73.2768 21.0379 73.2825 24.6164 73.2896 24.8343C73.3025 25.2331 73.3267 25.492 73.3766 25.789C73.5362 26.7466 73.9109 27.4736 74.478 27.9277C74.8813 28.2502 75.3358 28.4722 75.9172 28.6306C76.4544 28.7763 76.9161 28.8301 77.6471 28.8301H78.0632V27.741V26.6518H77.9734C77.563 26.6518 77.0714 26.5656 76.7864 26.4439C76.2863 26.2303 76.0155 25.7989 75.9158 25.0662C75.8916 24.8866 75.8901 24.4623 75.8859 16.7253L75.883 8.57524H74.5792H73.2754V16.5131Z" fill="#033270"/>
<path d="M134.395 16.8517C134.398 24.5689 134.401 25.146 134.423 25.3497C134.529 26.2917 134.761 26.9636 135.169 27.4996C135.277 27.6425 135.509 27.8745 135.653 27.9834C136.222 28.4148 136.981 28.6906 137.896 28.7953C138.02 28.8094 138.281 28.8193 138.634 28.825L139.178 28.832V27.7443V26.6552L138.962 26.6453C137.709 26.5887 137.206 26.1941 137.031 25.129C137.007 24.9819 137.005 24.5689 137.003 16.7739L136.998 8.57437H135.694H134.391L134.395 16.8517Z" fill="#033270"/>
<path d="M25.4813 12.9619C24.357 13.0397 23.2142 13.4216 22.3393 14.0086C21.8121 14.3622 21.3875 14.7837 21.0198 15.3198C20.9415 15.4315 20.9386 15.4358 20.9301 15.3976C20.9258 15.3764 20.8517 14.8969 20.7648 14.3325C20.6793 13.7681 20.6052 13.2858 20.6009 13.2604L20.5923 13.2151H19.4609H18.3281V21.0157V28.8164H19.6319H20.9358L20.94 24.2223C20.9443 19.4089 20.9429 19.5716 21.0084 19.0921C21.1125 18.317 21.349 17.6154 21.6853 17.0765C21.8905 16.747 22.2382 16.3552 22.5317 16.1232C23.1743 15.6154 23.9295 15.324 24.8615 15.2208C25.1208 15.1925 25.8475 15.1967 26.1083 15.2293C27.1428 15.3537 27.9265 15.7116 28.5734 16.3552C29.2089 16.9846 29.588 17.7936 29.749 18.8545C29.8231 19.3481 29.8188 19.0582 29.8231 24.1247L29.8274 28.8164H31.1169H32.4065L32.4022 23.8475C32.3979 18.4259 32.4036 18.8347 32.3196 18.2293C32.1172 16.7569 31.5444 15.5419 30.6453 14.672C29.5637 13.6267 28.2172 13.068 26.5144 12.9605C26.255 12.9449 25.7235 12.9449 25.4813 12.9619Z" fill="#98001C"/>
<path d="M68.8569 12.9619C68.267 13.0058 67.6585 13.1302 67.1113 13.3198C65.9244 13.7314 65.0452 14.3721 64.4182 15.2788C64.3555 15.3679 64.3042 15.4344 64.3028 15.4273C64.2999 15.4202 64.2244 14.928 64.1332 14.3325C64.042 13.737 63.9651 13.242 63.9622 13.2321C63.9565 13.2179 63.7228 13.2151 62.8266 13.2179L61.6966 13.2222L61.6923 21.0186L61.6895 28.8164H62.9933H64.2971V24.5759C64.2971 20.3736 64.3042 19.747 64.347 19.3326C64.4538 18.2944 64.7559 17.4485 65.2489 16.7936C65.4 16.5928 65.7078 16.2788 65.9073 16.1189C66.2906 15.8134 66.6796 15.6041 67.1683 15.4428C67.7255 15.259 68.2741 15.1854 68.9965 15.1981L69.3699 15.2052V14.0751V12.9463L69.196 12.9478C69.0991 12.9492 68.9467 12.9562 68.8569 12.9619Z" fill="#98001C"/>
<path d="M104.317 12.9676C103.385 13.0044 102.545 13.1769 101.732 13.4994C100.002 14.1826 98.6837 15.4429 97.8986 17.1628C97.4697 18.1006 97.2389 19.0256 97.1391 20.194C97.112 20.5122 97.1163 21.4967 97.1462 21.8361C97.2602 23.119 97.5566 24.1587 98.101 25.1742C98.7308 26.3525 99.5017 27.2082 100.545 27.8871C101.579 28.5618 102.681 28.9267 103.987 29.0272C104.225 29.0456 104.931 29.0456 105.186 29.0272C106.571 28.9253 107.621 28.542 108.72 27.733C109.394 27.2365 109.954 26.6325 110.338 25.9861L110.401 25.88L110.405 27.5986C110.41 29.3341 110.404 29.6467 110.357 30.0244C110.257 30.8362 110.023 31.5378 109.664 32.1121C109.352 32.61 108.831 33.1361 108.326 33.4629C107.728 33.8504 107.065 34.081 106.254 34.1856C105.969 34.2224 105.07 34.2224 104.758 34.1856C103.554 34.0428 102.588 33.6538 101.787 32.9862C101.202 32.4982 100.778 31.8815 100.553 31.1884L100.513 31.064H99.2181H97.9243L97.9342 31.1177C98.0582 31.8278 98.2221 32.3426 98.4985 32.8928C98.9602 33.8108 99.6413 34.5492 100.597 35.1701C101.539 35.7797 102.599 36.1602 103.866 36.3398C104.82 36.4756 105.85 36.4869 106.753 36.3752C108.869 36.1107 110.642 35.0923 111.75 33.5025C112.55 32.3568 112.986 30.972 113.027 29.4444C113.033 29.2577 113.036 25.5193 113.033 21.1374L113.03 13.1713H111.904C111.284 13.1713 110.779 13.1727 110.779 13.1755C110.779 13.1812 110.438 16.0129 110.434 16.0482C110.431 16.0666 110.395 16.0185 110.331 15.9139C109.767 14.9832 108.863 14.1925 107.742 13.6451C106.843 13.2066 105.885 12.9916 104.723 12.969C104.562 12.9662 104.379 12.9647 104.317 12.9676ZM105.599 15.2378C106.529 15.3127 107.468 15.6649 108.222 16.2194C109.375 17.068 110.14 18.4075 110.358 19.9606C110.421 20.4104 110.444 21.1614 110.407 21.6169C110.338 22.4783 110.154 23.1756 109.817 23.8574C109.499 24.4953 109.203 24.9083 108.74 25.3567C107.939 26.1304 106.938 26.6014 105.763 26.7598C105.522 26.7923 104.706 26.7966 104.466 26.7669C103.776 26.682 103.228 26.5165 102.648 26.2209C101.673 25.7216 100.934 24.9621 100.415 23.9281C99.922 22.9436 99.6997 21.7343 99.7781 20.4698C99.8536 19.2633 100.18 18.2859 100.815 17.3651C101.286 16.6833 101.923 16.1303 102.649 15.7752C103.57 15.324 104.526 15.1501 105.599 15.2378Z" fill="#033270"/>
<path d="M122.641 12.9732C121.546 13.0269 120.532 13.2914 119.573 13.7723C119.075 14.0227 118.652 14.2985 118.225 14.6549C118.038 14.8091 117.573 15.2745 117.417 15.4626C116.325 16.7738 115.71 18.3877 115.581 20.2774C115.561 20.5631 115.561 21.3863 115.581 21.6649C115.654 22.713 115.862 23.6395 116.215 24.4797C116.327 24.7456 116.557 25.2081 116.714 25.4769C117.207 26.3255 117.838 27.0441 118.591 27.6098C119.707 28.4486 121.009 28.9295 122.441 29.0285C122.753 29.0497 123.577 29.037 123.86 29.0073C124.962 28.8899 125.849 28.5971 126.72 28.0653C127.618 27.5165 128.299 26.846 128.805 26.0115L128.876 25.8941V27.3397V28.7867H130.187H131.498V20.9931V13.1995H130.358C129.402 13.1995 129.218 13.2023 129.218 13.2193C129.218 13.2433 128.893 15.9463 128.882 16.0185L128.873 16.0722L128.799 15.9463C128.44 15.3452 127.92 14.778 127.293 14.3098C126.318 13.5814 125.325 13.1839 124.102 13.0312C123.656 12.976 123.074 12.952 122.641 12.9732ZM124.105 15.2448C124.886 15.3212 125.603 15.5574 126.278 15.9605C127.341 16.5942 128.145 17.6253 128.553 18.8785C128.858 19.8134 128.95 20.8827 128.818 21.9407C128.728 22.6635 128.531 23.3184 128.222 23.9351C127.936 24.5023 127.658 24.8913 127.246 25.3015C126.522 26.0186 125.594 26.5052 124.578 26.6989C124.188 26.7739 124.058 26.7838 123.533 26.7838C123.144 26.7838 123.002 26.7796 122.857 26.7598C121.216 26.5391 119.917 25.7046 119.085 24.3382C118.609 23.556 118.33 22.6593 118.239 21.6239C118.213 21.3283 118.209 20.655 118.232 20.3608C118.276 19.7851 118.391 19.208 118.554 18.7427C118.753 18.1698 119.1 17.5461 119.476 17.0779C119.654 16.8572 120.024 16.4867 120.234 16.3197C121.283 15.4895 122.673 15.1033 124.105 15.2448Z" fill="#033270"/>
<path d="M50.4684 12.9957C48.7399 13.1032 47.3934 13.5501 46.1978 14.4143C45.8074 14.6958 45.3172 15.1456 45.0337 15.4837C43.9464 16.7793 43.3366 18.396 43.2083 20.314C43.1884 20.6096 43.1884 21.4144 43.2083 21.6931C43.3223 23.3168 43.7441 24.6252 44.5421 25.8346C44.8213 26.2575 45.0522 26.5418 45.4027 26.8968C45.9698 27.4697 46.5555 27.8883 47.3193 28.2632C48.4777 28.8318 49.7516 29.0963 51.1666 29.0637C53.3681 29.0128 55.0695 28.3466 56.4175 27.0043C57.157 26.2688 57.6971 25.4017 58.0391 24.4003C58.0775 24.2886 58.1132 24.1797 58.1189 24.157L58.1274 24.1188L56.7153 24.1217L55.3032 24.1259L55.2547 24.2461C55.1863 24.4173 55.0282 24.7242 54.9213 24.8911C54.3841 25.7455 53.5206 26.3961 52.5616 26.6705C52.0016 26.8303 51.5214 26.8855 50.8189 26.8728C50.3572 26.8643 50.1321 26.8416 49.7588 26.7638C48.6245 26.5305 47.59 25.8926 46.8932 24.9972C46.4016 24.3678 46.0682 23.5587 45.9299 22.662C45.9057 22.5035 45.8587 22.0764 45.8587 22.0085C45.8587 21.9844 46.0511 21.983 52.1341 21.983H58.4081L58.4252 21.8515C58.5264 21.0665 58.5406 20.222 58.4623 19.4795C58.2955 17.9024 57.6615 16.4412 56.6583 15.3252C56.2992 14.9264 55.8817 14.5699 55.4001 14.2531C55.1023 14.0579 54.9455 13.9674 54.6221 13.8061C53.76 13.3776 52.8523 13.1244 51.8007 13.0225C51.577 12.9999 50.6835 12.9829 50.4684 12.9957ZM51.3034 15.1654C52.0985 15.2262 52.7753 15.4101 53.4451 15.7496C53.8597 15.9589 54.1704 16.1852 54.5166 16.5289C54.8843 16.8953 55.1222 17.2206 55.3345 17.6463C55.5169 18.0155 55.6224 18.3168 55.7036 18.7043C55.772 19.0339 55.819 19.4597 55.819 19.751V19.8614H50.8588H45.9L45.9072 19.8005C45.9114 19.768 45.9257 19.6633 45.9371 19.5686C46.0724 18.478 46.4757 17.5233 47.1098 16.792C47.9491 15.8231 49.1361 15.2503 50.4826 15.1612C50.655 15.1499 51.1267 15.1527 51.3034 15.1654Z" fill="#98001C"/>
<path d="M86.6336 13.0026C85.3811 13.0775 84.1855 13.4043 83.228 13.9347C82.2163 14.4948 81.4425 15.2006 80.817 16.1342C79.8908 17.5189 79.4234 19.2657 79.4633 21.2049C79.479 21.9348 79.5402 22.4893 79.6799 23.1357C80.0147 24.6816 80.8213 26.1315 81.8942 27.1145C82.9857 28.1131 84.4135 28.7708 85.9567 28.983C86.9442 29.1188 88.107 29.0876 89.0702 28.8981C90.0235 28.71 90.8443 28.3832 91.5995 27.8896C92.7936 27.1102 93.6699 26.0466 94.1843 24.7524C94.2613 24.5586 94.3924 24.1724 94.3924 24.1413C94.3924 24.1201 94.2556 24.1187 92.9874 24.1215L91.581 24.1258L91.4798 24.3521C91.1435 25.0989 90.6562 25.6703 89.9622 26.1329C89.3524 26.5388 88.7111 26.7595 87.8733 26.8514C87.604 26.8811 86.7433 26.8769 86.4911 26.8443C85.8442 26.7609 85.3112 26.601 84.7712 26.3295C83.8621 25.8712 83.124 25.1413 82.6808 24.2601C82.3787 23.6576 82.2049 23.0296 82.1308 22.2601C82.1194 22.1356 82.1094 22.0239 82.1094 22.0083C82.1094 21.9843 82.3018 21.9829 88.3848 21.9829H94.6588L94.6902 21.7594C94.7614 21.2375 94.7685 21.1031 94.7685 20.427C94.7685 19.7368 94.76 19.5925 94.683 19.0974C94.4422 17.5387 93.7383 16.1172 92.6981 15.0832C91.8745 14.2657 90.8058 13.6518 89.6046 13.3053C89.0317 13.1412 88.4333 13.0408 87.7806 13.0012C87.5099 12.9856 86.9243 12.9856 86.6336 13.0026ZM87.5669 15.1653C88.268 15.2176 88.8935 15.3718 89.4991 15.6419C90.6519 16.1554 91.5339 17.1554 91.883 18.3393C92.0084 18.7636 92.084 19.2686 92.084 19.6802V19.8612H87.1323H82.1806V19.8202C82.1806 19.7962 82.1906 19.7028 82.202 19.6109C82.3702 18.328 82.8318 17.3237 83.6099 16.5472C84.4221 15.7367 85.4879 15.2586 86.6891 15.1667C86.9043 15.1497 87.3489 15.1497 87.5669 15.1653Z" fill="#033270"/>
<path d="M10.9379 19.1855C10.9421 24.6877 10.9436 25.1474 10.9664 25.3497C11.0704 26.2903 11.3041 26.9636 11.7116 27.4996C11.8199 27.6425 12.0522 27.8745 12.1961 27.9834C12.7646 28.4148 13.5241 28.6906 14.4389 28.7953C14.5629 28.8094 14.8237 28.8193 15.1771 28.825L15.7214 28.832V27.7443V26.6552L15.5048 26.6453C14.2523 26.5887 13.7493 26.1927 13.574 25.129C13.5512 24.9833 13.5484 24.6566 13.5455 19.1077L13.5412 13.242H12.2374H10.9336L10.9379 19.1855Z" fill="#98001C"/>
<rect y="7.5" width="4" height="11.5" fill="#0D6EFF"/>
<rect y="19" width="4" height="11.5" fill="#FFCD29"/>
</svg>
