<svg width="12" height="13" viewBox="0 0 12 13" fill="none" xmlns="http://www.w3.org/2000/svg">
<path d="M4.244 5.62133C4.86956 6.72032 5.77968 7.63044 6.87867 8.256L7.468 7.43067C7.56277 7.29796 7.7029 7.20459 7.86187 7.16822C8.02084 7.13186 8.18762 7.15502 8.33067 7.23333C9.27355 7.74862 10.3148 8.05852 11.386 8.14267C11.5532 8.15592 11.7092 8.23169 11.823 8.35488C11.9368 8.47807 12 8.63963 12 8.80733V11.782C12 11.9471 11.9388 12.1063 11.8282 12.2288C11.7177 12.3513 11.5655 12.4285 11.4013 12.4453C11.048 12.482 10.692 12.5 10.3333 12.5C4.62667 12.5 0 7.87333 0 2.16667C0 1.808 0.018 1.452 0.0546667 1.09867C0.0715031 0.934465 0.148656 0.782347 0.271193 0.671756C0.39373 0.561165 0.552937 0.499964 0.718 0.5H3.69267C3.86037 0.499979 4.02193 0.563168 4.14512 0.676967C4.26831 0.790767 4.34408 0.946816 4.35733 1.114C4.44148 2.18519 4.75138 3.22645 5.26667 4.16933C5.34498 4.31238 5.36814 4.47916 5.33178 4.63813C5.29541 4.7971 5.20204 4.93723 5.06933 5.032L4.244 5.62133ZM2.56267 5.18333L3.82933 4.27867C3.46986 3.50273 3.22357 2.67923 3.098 1.83333H1.34C1.336 1.944 1.334 2.05533 1.334 2.16667C1.33333 7.13733 5.36267 11.1667 10.3333 11.1667C10.4447 11.1667 10.556 11.1647 10.6667 11.16V9.402C9.82077 9.27643 8.99727 9.03014 8.22133 8.67067L7.31667 9.93733C6.95244 9.79581 6.59867 9.62873 6.258 9.43733L6.21933 9.41533C4.91172 8.67115 3.82885 7.58828 3.08467 6.28067L3.06267 6.242C2.87127 5.90133 2.70419 5.54756 2.56267 5.18333Z" fill="#212529"/>
</svg>
