<svg width="14" height="19" viewBox="0 0 14 19" fill="none" xmlns="http://www.w3.org/2000/svg">
<path fill-rule="evenodd" clip-rule="evenodd" d="M6.35356 18.3396C5.22357 17.5899 4.40916 16.4655 4.1343 15.1625H0.5V1.43682C2.4444 2.29357 3.84926 4.16768 4.00196 6.1132L4.55168 9.96853L4.287 9.94176C3.70673 9.94176 3.19773 10.4237 3.19773 10.8967C3.19773 11.3429 3.58457 11.7177 4.09358 11.8159L4.75529 11.9497C5.84456 10.1381 6.46554 8.36214 6.46554 6.62189C6.46554 5.76753 6.39627 4.91318 6.32653 4.05307C6.26805 3.33192 6.20925 2.60673 6.19068 1.87412C6.19068 1.16017 6.50626 0.50869 7.00509 0C7.51409 0.50869 7.8195 1.16017 7.8195 1.87412C7.8195 2.68183 7.75001 3.48051 7.68091 4.2747C7.61258 5.06002 7.54464 5.84096 7.54464 6.62189C7.54464 8.36214 8.16562 10.1381 9.25489 11.9497L9.9166 11.8159C10.4256 11.7177 10.8125 11.334 10.8125 10.8967C10.8125 10.4147 10.3034 9.94176 9.72318 9.94176L9.44832 9.97745L9.99804 6.12212C10.2729 4.17661 11.5556 2.29357 13.5 1.44575V15.1714H9.87588C9.60102 16.4655 8.82733 17.6346 7.65662 18.3485C7.38175 18.5181 7.14761 18.7233 6.99491 19C6.85239 18.7233 6.61825 18.5181 6.35356 18.3396ZM5.29483 13.0474C5.18285 13.4223 5.10141 13.7971 5.10141 14.2076L5.25411 15.1714C5.44753 15.9211 5.8751 16.6083 6.46554 17.1884L6.99491 17.7534L7.55482 17.1884C8.14526 16.5993 8.57283 15.9211 8.76625 15.1714L8.91895 14.2076C8.91895 13.7971 8.83751 13.4223 8.72553 13.0474L8.1758 12.1996C7.70752 11.45 7.27995 10.6646 7.00509 9.84359C6.73023 10.6646 6.30266 11.45 5.83438 12.1996L5.29483 13.0474ZM2.22044 10.4237C2.37314 9.91498 2.8007 9.46877 3.35043 9.19211L2.92287 6.01503C2.77016 5.02442 2.30188 4.14091 1.59945 3.41804V10.4147V11.3697V14.2076H4.05286C4.05286 13.7257 4.1343 13.2884 4.24628 12.8422L3.73727 12.7351C2.99413 12.5298 2.41386 12.0211 2.22044 11.3697Lnan nanL2.22044 11.3697C2.12782 11.0616 2.12782 10.7318 2.22044 10.4237Lnan nanL2.22044 10.4237ZM12.4209 11.3697V14.2076H9.9675C9.9675 13.7257 9.88606 13.2884 9.77408 12.8422L10.2831 12.7351C11.0161 12.5298 11.6065 12.0211 11.7999 11.3697Lnan nanL11.7999 11.3697C11.8682 11.0583 11.8682 10.7351 11.7999 10.4237Lnan nanL11.7999 10.4237C11.6472 9.90606 11.2197 9.46877 10.6699 9.19211L11.0975 6.01503C11.2095 5.02442 11.7185 4.13199 12.4209 3.41804V10.4237V11.3697Z" fill="#6079C5"/>
<path fill-rule="evenodd" clip-rule="evenodd" d="M5.10141 14.2076H6.46554H7.55482H8.91895L8.76625 15.1714H7.55482H6.46554H5.25411L5.10141 14.2076Z" fill="#6079C5"/>
<path d="M5.29483 13.0474C5.95654 13.1188 6.46554 13.6275 6.46554 14.2076H7.55482C7.55482 13.6275 8.06382 13.1188 8.72553 13.0474L8.1758 12.1996C7.70752 12.2978 7.32067 12.5744 7.00509 12.8868C6.68951 12.5744 6.30266 12.2978 5.83438 12.1996L5.29483 13.0474Z" fill="#6079C5"/>
</svg>
